<?xml version="1.0" standalone="no"?>
<!DOCTYPE svg PUBLIC "-//W3C//DTD SVG 20010904//EN"
 "http://www.w3.org/TR/2001/REC-SVG-20010904/DTD/svg10.dtd">
<svg version="1.0" xmlns="http://www.w3.org/2000/svg"
 width="700.000000pt" height="700.000000pt" viewBox="0 0 700.000000 700.000000"
 preserveAspectRatio="xMidYMid meet">
<metadata>
Created by potrace 1.11, written by Peter Selinger 2001-2013
</metadata>
<g transform="translate(0.000000,700.000000) scale(0.100000,-0.100000)"
fill="#000000" stroke="none">
<path d="M1033 6992 c-48 -15 -112 -71 -133 -117 -31 -68 -30 -129 7 -295 7
-36 16 -75 18 -87 7 -30 63 -204 74 -228 5 -11 22 -49 38 -85 63 -149 207
-376 303 -480 8 -9 40 -44 71 -77 174 -186 262 -345 314 -568 29 -124 59 -175
124 -213 44 -26 52 -27 206 -29 175 -1 207 5 270 53 70 53 91 127 71 254 -52
334 -230 685 -482 950 -113 119 -180 212 -242 336 -41 81 -96 228 -106 280 -3
16 -10 58 -16 93 -19 113 -70 181 -154 206 -51 15 -317 20 -363 7z"/>
<path d="M2532 6974 c-29 -14 -64 -42 -79 -61 -29 -38 -53 -115 -47 -150 3
-13 6 -35 8 -50 29 -209 103 -442 204 -638 77 -150 203 -326 331 -460 172
-181 287 -397 316 -597 13 -83 56 -146 126 -185 29 -15 60 -18 194 -19 109 -2
172 2 198 11 99 34 163 130 153 227 -4 29 -8 64 -11 78 -3 14 -8 41 -11 60 -3
19 -17 72 -30 118 -86 296 -228 541 -443 767 -193 201 -299 406 -357 682 -19
91 -30 125 -52 152 -65 80 -99 90 -303 91 -137 0 -148 -2 -197 -26z"/>
<path d="M328 4358 c-154 -39 -266 -149 -312 -308 -15 -50 -16 -192 -13 -1485
1 -786 6 -1441 10 -1455 4 -14 10 -40 13 -58 3 -18 16 -68 28 -110 130 -432
461 -761 892 -888 185 -54 124 -52 1709 -50 l1470 2 85 22 c186 49 287 90 410
165 272 166 470 419 568 727 17 52 33 113 36 135 4 23 9 52 11 65 3 14 8 61
11 105 4 44 7 81 9 83 1 1 87 4 191 7 192 5 216 7 314 26 223 43 495 166 649
294 234 195 390 405 492 665 27 68 75 260 86 337 9 72 10 319 1 393 -54 450
-322 871 -705 1109 -140 87 -332 170 -432 187 -14 3 -42 9 -61 14 -19 5 -55
12 -80 15 -25 3 -54 9 -65 12 -11 4 -1197 7 -2635 8 -2436 0 -2620 -1 -2682
-17z m5282 -874 c36 -7 74 -18 85 -22 68 -30 86 -40 138 -75 103 -68 185 -165
234 -275 28 -64 30 -70 47 -163 52 -275 -100 -569 -359 -694 -118 -57 -227
-72 -477 -66 l-28 1 0 655 0 656 148 -2 c81 -1 176 -8 212 -15z"/>
</g>
</svg>
