<?xml version="1.0" encoding="UTF-8" standalone="no"?>
<!-- Created with Inkscape (http://www.inkscape.org/) -->

<svg
   width="135.3284mm"
   height="166.47047mm"
   viewBox="0 0 135.3284 166.47047"
   version="1.1"
   id="svg1"
   inkscape:version="1.3.2 (091e20e, 2023-11-25, custom)"
   sodipodi:docname="CremaVibes.svg"
   inkscape:export-filename="CremaVibes.png"
   inkscape:export-xdpi="96"
   inkscape:export-ydpi="96"
   xmlns:inkscape="http://www.inkscape.org/namespaces/inkscape"
   xmlns:sodipodi="http://sodipodi.sourceforge.net/DTD/sodipodi-0.dtd"
   xmlns="http://www.w3.org/2000/svg"
   xmlns:svg="http://www.w3.org/2000/svg">
  <sodipodi:namedview
     id="namedview1"
     pagecolor="#ffffff"
     bordercolor="#000000"
     borderopacity="0.25"
     inkscape:showpageshadow="2"
     inkscape:pageopacity="0.0"
     inkscape:pagecheckerboard="0"
     inkscape:deskcolor="#d1d1d1"
     inkscape:document-units="mm"
     inkscape:zoom="1.4778115"
     inkscape:cx="218.2281"
     inkscape:cy="356.27006"
     inkscape:window-width="2560"
     inkscape:window-height="1369"
     inkscape:window-x="2552"
     inkscape:window-y="-8"
     inkscape:window-maximized="1"
     inkscape:current-layer="svg1" />
  <defs
     id="defs1" />
  <rect
     style="fill:#f0ece1;fill-opacity:1;stroke-width:0.874641;paint-order:stroke fill markers"
     id="rect4"
     width="135.3284"
     height="166.47047"
     x="0"
     y="0" />
  <g
     inkscape:label="Layer 1"
     inkscape:groupmode="layer"
     id="layer1"
     transform="translate(-37.335796,-94.292778)">
    <g
       id="g5"
       transform="translate(6.1143125,-8.5507305)">
      <g
         id="g4"
         transform="matrix(0.86882827,0,0,0.86882827,7.6960891,37.370302)">
        <path
           style="fill:#ca7c3a;fill-opacity:1;stroke-width:0.264583"
           d="m 94.672677,178.95662 c -22.338353,-3.47203 -23.886578,-27.06244 -2.136791,-32.55842 3.741232,-0.94537 3.876352,-0.92522 5.941719,0.88598 0.96988,0.85053 2.330945,1.92918 3.024595,2.397 l 1.26118,0.85057 -1.23593,-2.40019 c -1.49828,-2.9097 -1.568062,-2.82666 1.94669,-2.31656 9.58846,1.39159 16.50885,6.23912 18.58703,13.01964 3.70706,12.09509 -10.74054,22.70956 -27.388493,20.12198 z"
           id="path78-1"
           inkscape:label="Crema" />
        <g
           id="g3"
           inkscape:label="Cup">
          <path
             style="fill:#311311;fill-opacity:1;stroke-width:0.264583"
             d="m 121.84157,161.4251 c -1.2578,-6.6122 -8.81644,-11.79721 -19.14273,-13.13136 -1.15468,-0.14918 -1.23681,-0.21891 -1.93513,-1.64276 l -0.72928,-1.48696 2.19972,0.17146 c 11.08423,0.86402 21.23938,9.29083 20.48882,17.14091 -0.072,0.75281 -0.61212,0.36429 -0.8814,-1.05129 z"
             id="path4284-2"
             sodipodi:nodetypes="ssscsss" />
          <path
             style="fill:#311311;fill-opacity:1;stroke-width:0.264583"
             d="m 77.042376,162.59243 c -0.06624,-7.76829 6.578727,-14.9145 16.916749,-17.00925 l 2.068671,-0.41916 1.633207,1.41344 1.633207,1.41345 -2.362886,0.17144 c -9.71151,0.70465 -17.447828,4.06414 -19.240865,13.20843 -0.262053,1.33644 -0.638241,2.37615 -0.648083,1.22165 z"
             id="path4283-9"
             sodipodi:nodetypes="sscccsss" />
          <path
             id="Cup"
             style="fill:#311311;fill-opacity:1;stroke-width:0.264583"
             d="m 99.675323,142.2306 0.0041,0.7674 c 0.0063,1.19974 0.244036,1.33707 2.641697,1.52497 27.68571,2.16966 29.22202,32.27993 1.85208,36.29908 -29.143522,4.27958 -40.010734,-28.51427 -11.773954,-35.53013 1.600729,-0.39773 2.949088,-0.74388 2.9962,-0.76947 0.363659,-0.19753 -0.859674,-1.68362 -1.385962,-1.68362 -4.61469,0 -13.426662,4.95669 -16.848584,9.47694 -16.658492,22.00537 20.981648,55.41145 42.33281,29.6013 1.50307,-1.81697 1.65657,-1.92578 3.36672,-2.37402 4.33994,-1.13752 9.66298,-4.07508 11.69851,-6.45645 5.31526,-6.21832 0.95869,-12.98268 -7.23315,-11.23032 l -0.7922,0.1695 -0.47955,-2.38332 c -1.87061,-9.302 -11.7273,-16.37167 -24.04453,-17.24597 z m 31.281807,24.19594 c 3.58231,0.0915 1.68375,4.22456 -3.4866,6.83163 -1.77329,0.89415 -3.45354,1.60662 -3.45354,1.46451 0,-0.0571 0.34104,-1.15238 0.75809,-2.43396 0.41706,-1.28159 0.86374,-2.74681 0.99271,-3.25614 0.27518,-1.08672 2.44857,-2.35576 4.39921,-2.56883 0.2882,-0.0315 0.55131,-0.0433 0.79013,-0.0372 z" />
        </g>
        <g
           id="g92"
           inkscape:label="Beans"
           style="fill:#ca7c3a;fill-opacity:1"
           transform="matrix(0.26458333,0,0,0.26458333,166.79319,96.697983)">
          <g
             id="g91"
             inkscape:label="Bottom"
             style="fill:#ca7c3a;fill-opacity:1">
            <path
               style="fill:#ca7c3a;fill-opacity:1"
               d="m -238.3089,163.6413 c -7.94096,-11.70913 6.49448,-36.25 21.323,-36.25 h 3.76768 l -3.74871,3.09 c -5.19335,4.2808 -6.39433,7.10112 -7.59204,17.8288 -1.65079,14.78575 -8.7509,22.70239 -13.74993,15.3312 z"
               id="path88" />
            <path
               style="fill:#ca7c3a;fill-opacity:1"
               d="m -229.62586,166.1379 c 5.07654,-3.42108 6.82023,-7.31565 7.88554,-17.61256 1.53427,-14.82976 9.30145,-23.34736 14.50971,-15.91153 7.67129,10.9523 -7.98193,35.77749 -22.55906,35.77749 h -3.18001 z"
               id="path87" />
          </g>
          <g
             id="g90"
             inkscape:label="Top"
             style="fill:#ca7c3a;fill-opacity:1">
            <path
               style="fill:#ca7c3a;fill-opacity:1"
               d="m -264.17391,86.979602 c -7.79318,-3.463857 -13.73687,-13.434321 -16.26505,-23.73965 -2.46554,-10.050008 -1.68271,-20.418493 3.80099,-25.381172 1.93078,-1.74733 1.96406,-1.678493 1.96406,4.061812 0,8.090483 2.69702,13.109562 11,20.470713 15.40481,13.657399 15.04206,31.496324 -0.5,24.588297 z"
               id="path89" />
            <path
               style="fill:#ca7c3a;fill-opacity:1"
               d="m -249.83261,82.258195 c 0.64721,-6.786563 -2.22494,-12.164816 -11.39168,-21.331557 -12.1568,-12.156802 -15.50635,-25.49005 -6.62015,-26.352266 14.72914,-1.429149 30.21391,30.050603 22.3572,45.451034 -3.18931,6.251567 -4.80793,7.083267 -4.34537,2.232789 z"
               id="path90" />
          </g>
        </g>
        <g
           id="g93"
           inkscape:label="Steam"
           transform="matrix(0.26458333,0,0,0.26458333,166.79319,96.697983)"
           style="fill:#311311;fill-opacity:1">
          <path
             style="fill:#311311;fill-opacity:1"
             d="m -254.27588,189.22977 c -14.30806,-22.66543 -10.76372,-38.49047 14.20232,-63.41174 29.17465,-29.12233 34.2543,-50.425827 17.74647,-74.426726 -0.94572,-1.375 0.41769,-0.475 3.02982,2 22.33012,21.157893 17.38284,47.035466 -14.44409,75.552166 -24.20509,21.68759 -29.22492,35.90204 -20.19939,57.19783 3.50388,8.26743 3.42032,9.03749 -0.33513,3.08847 z"
             id="path85" />
          <path
             style="fill:#311311;fill-opacity:1"
             d="m -262.71162,183.22391 c -21.42913,-30.18373 -18.74444,-53.74943 9.53771,-83.720095 17.79423,-18.856592 22.38697,-26.417135 24.82862,-40.87267 l 1.28412,-7.602514 2.10855,3.431336 c 12.87925,20.958913 7.55046,42.088261 -16.62779,65.931333 -27.01445,26.63996 -31.37511,43.04917 -17.36496,65.34448 4.29948,6.84205 1.5932,5.03712 -3.76625,-2.51187 z"
             id="path86" />
        </g>
        <g
           id="g94"
           inkscape:label="Rosetta"
           style="fill:#ffffff"
           transform="matrix(0.26458333,0,0,0.26458333,166.79319,96.697983)">
          <path
             style="fill:#f0ece1;fill-opacity:1"
             d="m -243.36253,303.52048 c 2.85374,-0.54292 8.33862,-1.53319 12.18862,-2.20061 40.94657,-7.09826 61.93162,-35.04289 47.88125,-63.76082 -5.67188,-11.59291 -27.765,-27.16775 -38.5378,-27.16775 -2.6756,0 -0.0951,2.08448 4.40655,3.55952 52.06033,17.05842 47.39528,71.36543 -7.25,84.3991 -10.4014,2.48088 -13.68145,2.53943 -5.5,0.0982 34.10481,-10.17648 48.69712,-27.66751 42.07796,-50.43662 -1.94905,-6.70451 -10.91996,-17.08192 -14.22482,-16.45505 -3.73669,0.70878 -3.09575,7.63738 0.74165,8.01731 6.83292,0.6765 10.51992,11.94895 7.52597,23.00952 -4.32028,15.9604 -17.5991,25.78204 -41.62076,30.78468 -5.775,1.20267 -11.56791,2.87161 -12.87312,3.70875 -1.30522,0.83713 -2.06419,1.02219 -1.68659,0.41123 1.21929,-1.97286 5.89582,-3.79722 13.05971,-5.09471 24.08639,-4.36244 39.44289,-17.59392 39.46273,-34.00191 0.0128,-10.55092 -3.89878,-11.02157 -7.30479,-0.87894 -4.55707,13.57032 -11.41922,19.68735 -27.91711,24.88577 -15.37813,4.84559 -15.69833,5.00346 -17.57732,8.66598 l -1.73908,3.38983 -1.21671,-3.36475 c -1.41447,-3.91164 -2.30273,-4.3959 -15.94071,-8.69044 -16.83701,-5.30191 -24.3665,-12.02841 -28.80294,-25.73123 -3.54532,-10.95039 -8.23443,-8.46764 -7.16972,3.79617 1.32989,15.3182 14.18206,26.20254 37.03801,31.36703 10.30965,2.32955 15.36209,4.19946 14.27745,5.2841 -0.30881,0.30882 -1.19298,0.0374 -1.96482,-0.60319 -0.77184,-0.64057 -6.53992,-2.22983 -12.81795,-3.5317 -25.85271,-5.36104 -41.46164,-19.42265 -41.25619,-37.16647 0.0963,-8.31738 3.59043,-15.52806 8.17915,-16.87898 3.80002,-1.11872 5.06234,-7.5432 1.48213,-7.5432 -7.3783,0 -15.44681,13.20203 -15.39976,25.19773 0.0744,18.9689 11.7842,31.72329 37.0812,40.38909 11.55931,3.95979 10.89312,4.29402 -1.78751,0.8968 -52.93056,-14.18041 -57.18314,-66.23531 -6.78763,-83.08586 8.2016,-2.74234 9.38606,-5.02212 1.71355,-3.29815 -60.30359,13.54991 -41.76478,91.69023 21.8047,91.90597 4.3595,0.0148 8.88383,2.12949 10.0549,4.69971 l 1.22982,2.69915 1.99068,-3.14406 c 1.6081,-2.53982 2.98787,-3.33378 7.1793,-4.1312 z"
             id="path79" />
          <path
             style="fill:#f0ece1;fill-opacity:1"
             d="m -249.67391,238.67772 c 0,-0.73222 3.33064,-4.89278 7.40143,-9.24568 7.85574,-8.40017 10.0296,-13.49832 7.6509,-17.94296 -3.9093,-7.3046 -14.12357,-2.75814 -15.6807,6.97961 -0.69749,4.36188 -2.37163,5.34344 -2.37163,1.39049 0,-9.27432 -10.10352,-16.44127 -14.4433,-10.24537 -3.73111,5.32691 -1.38467,12.04576 7.44142,21.30798 3.61593,3.79461 6.02448,7.29591 6.49616,9.44347 0.76142,3.46672 3.50572,2.1457 3.50572,-1.68754 z"
             id="path84" />
          <path
             style="fill:#f0ece1;fill-opacity:1"
             d="m -183.14158,250.80376 c -2.41311,-19.31387 -32.53233,-42.65618 -32.53233,-25.21246 0,2.7771 1.31221,3.72189 2.5,1.8 0.90597,-1.46588 6.03896,-1.21947 10.12032,0.48582 10.31211,4.30868 16.98174,14.46946 18.09755,27.57054 0.58597,6.88008 0.70295,7.18051 1.54509,3.96808 0.50112,-1.91156 0.62233,-5.78695 0.26937,-8.61198 z"
             id="path83" />
          <path
             style="fill:#f0ece1;fill-opacity:1"
             d="m -316.12799,245.3913 c 4.1106,-11.56981 18.95618,-22.49747 25.39576,-18.69352 4.11641,2.43162 5.80651,-0.71727 2.40333,-4.47774 -10.4026,-11.49475 -35.19841,18.79869 -31.77263,38.81714 l 0.83068,4.85412 0.5944,-7.5 c 0.32691,-4.125 1.47372,-9.975 2.54846,-13 z"
             id="path82"
             inkscape:label="path82" />
          <path
             style="fill:#f0ece1;fill-opacity:1"
             d="m -249.83636,263.22042 c 1.26319,-2.52959 3.46366,-4.21731 9.16245,-7.02742 13.00277,-6.41175 20.1392,-18.06753 15.90556,-25.97817 -1.05927,-1.97926 -1.21193,-1.93305 -4.75,1.43773 -2.01056,1.9155 -6.19001,5.0758 -9.28768,7.0229 -6.41552,4.03261 -10.56039,8.9284 -11.48874,13.57016 -0.92757,4.63783 -2.03745,4.68398 -2.76804,0.11511 -0.71592,-4.47715 -6.0456,-11.10852 -10.97794,-13.65913 -1.65943,-0.85812 -5.37791,-3.79294 -8.2633,-6.52182 l -5.24616,-4.9616 -1.02289,3.83656 c -2.63469,9.88183 2.77597,18.33469 15.89919,24.8387 7.05371,3.4959 8.73769,5.02709 9.53848,8.67306 0.74053,3.37161 0.99506,3.26776 3.29907,-1.34608 z"
             id="path81" />
          <path
             style="fill:#f0ece1;fill-opacity:1"
             d="m -244.44697,279.04593 c 2.35018,-0.84062 6.74806,-2.29349 9.77306,-3.2286 15.54567,-4.8056 22.92946,-13.03544 22.97804,-25.61093 0.0458,-11.85147 -2.65883,-13.66522 -6.80735,-4.5651 -3.60558,7.90915 -9.88872,13.76057 -19.45884,18.12181 -6.56164,2.99024 -12.71185,8.16946 -12.71185,10.70492 0,0.5078 -0.45,0.92327 -1,0.92327 -0.55,0 -1,-0.61431 -1,-1.36514 0,-3.03415 -4.76264,-7.0771 -12.56106,-10.66294 -10.68774,-4.91439 -15.51018,-9.34125 -19.06501,-17.50114 -3.29036,-7.55282 -4.85838,-8.09307 -6.44549,-2.22078 -3.81577,14.11836 4.9088,27.07776 21.35802,31.725 10.03684,2.83561 13.96878,5.00916 15.71354,8.68632 l 1.5,3.16132 1.72694,-3.3198 c 1.2209,-2.34702 2.97906,-3.76767 6,-4.84821 z"
             id="path80" />
        </g>
      </g>
      <g
         id="g2"
         inkscape:label="Text"
         transform="matrix(0.86882827,0,0,0.86882827,6.1283013,31.853242)">
        <text
           xml:space="preserve"
           style="font-style:normal;font-variant:normal;font-weight:normal;font-stretch:normal;font-size:29.4092px;line-height:1.25;font-family:'Freestyle Script';-inkscape-font-specification:'Freestyle Script';text-align:center;text-anchor:middle;fill:#311311;fill-opacity:1;stroke-width:2.84198;paint-order:stroke fill markers"
           x="105.87833"
           y="241.74484"
           id="text2"
           inkscape:label="Vibes"><tspan
             sodipodi:role="line"
             id="tspan2"
             style="font-style:normal;font-variant:normal;font-weight:normal;font-stretch:normal;font-family:'Freestyle Script';-inkscape-font-specification:'Freestyle Script';fill:#ca7c3a;fill-opacity:1;stroke-width:2.84198"
             x="105.87833"
             y="241.74484">Vibes</tspan></text>
        <text
           xml:space="preserve"
           style="font-size:26.5693px;line-height:1.25;font-family:'Times New Roman';-inkscape-font-specification:'Times New Roman, ';text-align:center;text-anchor:middle;fill:#311311;fill-opacity:1;stroke-width:2.56755;paint-order:stroke fill markers"
           x="106.43065"
           y="218.49551"
           id="text1"
           inkscape:label="CREMA"><tspan
             sodipodi:role="line"
             id="tspan1"
             style="font-style:normal;font-variant:normal;font-weight:normal;font-stretch:normal;font-family:'Times New Roman';-inkscape-font-specification:'Times New Roman, ';stroke-width:2.56755"
             x="106.43065"
             y="218.49551">CREMA</tspan></text>
      </g>
    </g>
  </g>
</svg>
