<?xml version="1.0" encoding="UTF-8" standalone="no"?>
<!-- Created with Inkscape (http://www.inkscape.org/) -->

<svg
   width="192.12395mm"
   height="57.928425mm"
   viewBox="0 0 192.12395 57.928425"
   version="1.1"
   id="svg1"
   inkscape:version="1.3.2 (091e20e, 2023-11-25, custom)"
   sodipodi:docname="Daniel Sirz IT services Logo light.svg"
   inkscape:export-filename="Daniel Sirz IT services Logo dark transparent.svg"
   inkscape:export-xdpi="96"
   inkscape:export-ydpi="96"
   xmlns:inkscape="http://www.inkscape.org/namespaces/inkscape"
   xmlns:sodipodi="http://sodipodi.sourceforge.net/DTD/sodipodi-0.dtd"
   xmlns="http://www.w3.org/2000/svg"
   xmlns:svg="http://www.w3.org/2000/svg">
  <sodipodi:namedview
     id="namedview1"
     pagecolor="#ffffff"
     bordercolor="#000000"
     borderopacity="0.25"
     inkscape:showpageshadow="2"
     inkscape:pageopacity="0.0"
     inkscape:pagecheckerboard="0"
     inkscape:deskcolor="#d1d1d1"
     inkscape:document-units="mm"
     inkscape:zoom="1.0449705"
     inkscape:cx="355.03395"
     inkscape:cy="173.68911"
     inkscape:window-width="2560"
     inkscape:window-height="1369"
     inkscape:window-x="2552"
     inkscape:window-y="-8"
     inkscape:window-maximized="1"
     inkscape:current-layer="layer1" />
  <defs
     id="defs1" />
  <g
     inkscape:label="Layer 1"
     inkscape:groupmode="layer"
     id="layer1"
     transform="translate(-11.1125,-102.65662)">
    <path
       d="m 40.069101,131.62083 m -28.9566,0 a 28.956602,28.956602 0 1 0 57.913202,0 28.956602,28.956602 0 1 0 -57.913202,0 z"
       fill="#ffe5cf"
       id="path1"
       style="fill:#68e0d1;fill-opacity:1;stroke-width:0.0603263" />
    <path
       d="m 40.069101,112.70253 h -0.386086 c -6.949585,0.38609 -12.740906,6.17741 -12.740906,13.127 0,3.47478 1.158264,6.56347 3.474792,8.87999 l 0.772176,0.77216 c 1.544353,1.93044 2.316528,2.31652 2.316528,4.63304 v 1.15825 h 13.126994 v -1.15825 c 0,-2.31652 0.772175,-3.08869 2.316528,-4.63304 l 1.158264,-1.15825 c 1.93044,-2.31651 3.088704,-5.40521 3.088704,-8.4939 0,-7.33568 -5.791321,-13.127 -13.126994,-13.127"
       fill="#ff8746"
       id="path2"
       style="fill:#135b52;fill-opacity:1;stroke-width:0.0603263" />
    <path
       d="m 36.208222,147.83644 c 0,0.77216 0.772176,1.15825 1.158264,1.15825 h 5.405232 c 0.772175,0 1.158264,-0.38609 1.158264,-1.15825 0,-0.77218 -0.772175,-1.15827 -1.158264,-1.15827 h -5.405232 c -0.772176,0 -1.158264,0.38609 -1.158264,1.15827 z"
       fill="#ff9d68"
       id="path3"
       style="fill:#1f9788;fill-opacity:1;stroke-width:0.0603263" />
    <path
       d="m 40.069101,118.10777 c -4.246967,0 -7.72176,3.47479 -7.72176,7.72176 0,0.77217 0.772177,1.15826 1.158264,1.15826 0.386089,0 1.158265,-0.77217 1.158265,-1.15826 0,-2.70262 2.316528,-5.40524 5.405231,-5.40524 0.772178,0 1.158264,-0.77217 1.158264,-1.15826 0,-0.38609 -0.386086,-1.15826 -1.158264,-1.15826 z"
       fill="#ffffff"
       id="path4"
       style="fill:#e4e4e7;fill-opacity:1;stroke:none;stroke-width:0.0603263;stroke-opacity:1" />
    <path
       d="m 33.505605,143.97558 c 0,0.77217 0.772177,1.15825 1.158265,1.15825 h 10.424376 c 0.772175,0 1.158264,-0.38608 1.158264,-1.15825 0,-0.77218 -0.772175,-1.15827 -1.158264,-1.15827 H 34.66387 c -0.386088,0 -1.158265,0.38609 -1.158265,1.15827 z"
       fill="#ff9d68"
       id="path5"
       style="fill:#1f9788;fill-opacity:1;stroke-width:0.0603263" />
    <g
       id="g3"
       transform="translate(5.2916683,-6.092632)"
       style="fill:#18181b;fill-opacity:1">
      <text
         xml:space="preserve"
         style="font-size:23.9477px;line-height:1.25;font-family:cou;-inkscape-font-specification:cou;text-align:center;text-anchor:middle;fill:#18181b;fill-opacity:1;stroke:none;stroke-width:2.3142;paint-order:stroke fill markers"
         x="134.06476"
         y="136.50441"
         id="text1"><tspan
           sodipodi:role="line"
           id="tspan1"
           style="font-style:normal;font-variant:normal;font-weight:bold;font-stretch:normal;font-family:Tahoma;-inkscape-font-specification:'Tahoma Bold';fill:#18181b;fill-opacity:1;stroke:none;stroke-width:2.3142"
           x="134.06476"
           y="136.50441">Daniel Sirz</tspan></text>
      <text
         xml:space="preserve"
         style="font-size:18.3447px;line-height:1.25;font-family:cou;-inkscape-font-specification:cou;text-align:center;text-anchor:middle;fill:#18181b;fill-opacity:1;stroke:none;stroke-width:1.77276;paint-order:stroke fill markers"
         x="134.44853"
         y="156.87534"
         id="text1-2"><tspan
           sodipodi:role="line"
           id="tspan1-9"
           style="font-style:normal;font-variant:normal;font-weight:normal;font-stretch:normal;font-family:Tahoma;-inkscape-font-specification:Tahoma;fill:#18181b;fill-opacity:1;stroke:none;stroke-width:1.77276"
           x="134.44853"
           y="156.87534">IT Services</tspan></text>
    </g>
  </g>
</svg>
