<svg xmlns="http://www.w3.org/2000/svg" fill="none" viewBox="0 0 24 24" stroke-width="1.5" stroke="currentColor" class="w-6 h-6">
  <path stroke-linecap="round" stroke-linejoin="round" d="M15 10.5a3 3 0 1 1-6 0 3 3 0 0 1 6 0Z" />
  <path stroke-linecap="round" stroke-linejoin="round" d="M19.5 10.5c0 7.142-7.5 11.25-7.5 11.25S4.5 17.642 4.5 10.5a7.5 7.5 0 1 1 15 0Z" />
  <path
     style="fill:#00aad4;stroke-width:0.0306905"
     d="M 11.636164,20.623599 C 10.049314,19.564737 8.6048955,18.220356 7.5431957,16.8141 6.3076309,15.177556 5.5740423,13.477549 5.3422032,11.713555 5.1576637,10.309449 5.2917864,9.1035245 5.7600713,7.9564174 6.0872027,7.1550793 6.5457434,6.4572896 7.1611253,5.8243478 7.8070199,5.1600226 8.4658124,4.6969952 9.2753762,4.3383623 11.184391,3.4926779 13.413052,3.5856509 15.229688,4.5867582 c 0.613216,0.3379295 1.082347,0.6975862 1.600401,1.2269371 0.698201,0.7134265 1.226649,1.5716766 1.547735,2.5136704 0.416022,1.2205124 0.471254,2.5525663 0.167863,4.0483893 -0.516567,2.546851 -2.153567,5.028898 -4.724715,7.163693 -0.447675,0.3717 -1.197222,0.923251 -1.648267,1.212871 l -0.175121,0.112446 z m 0.803859,-6.393044 c 1.657384,-0.196547 2.956524,-1.422646 3.265476,-3.081883 0.0495,-0.265834 0.05988,-0.837995 0.02061,-1.135596 C 15.582631,8.9258132 14.995568,7.9809854 14.086957,7.3749991 13.390933,6.9107953 12.601219,6.7014555 11.744246,6.7539867 10.137009,6.852508 8.7684129,7.9878247 8.3594498,9.5618384 8.2697285,9.9071566 8.2398412,10.197629 8.2517365,10.608696 c 0.011064,0.382345 0.038695,0.579546 0.1257219,0.897266 0.4874443,1.779577 2.2219886,2.942864 4.0625646,2.724593 z"
     id="path3" />
</svg>
