<?xml version="1.0" encoding="UTF-8" standalone="no"?>
<!-- Created with Inkscape (http://www.inkscape.org/) -->

<svg
   xmlns:dc="http://purl.org/dc/elements/1.1/"
   xmlns:cc="http://creativecommons.org/ns#"
   xmlns:rdf="http://www.w3.org/1999/02/22-rdf-syntax-ns#"
   xmlns:svg="http://www.w3.org/2000/svg"
   xmlns="http://www.w3.org/2000/svg"
   xmlns:sodipodi="http://sodipodi.sourceforge.net/DTD/sodipodi-0.dtd"
   xmlns:inkscape="http://www.inkscape.org/namespaces/inkscape"
   width="210mm"
   height="297mm"
   viewBox="0 0 210 297"
   version="1.1"
   id="svg86"
   inkscape:version="0.92.4 (5da689c313, 2019-01-14)"
   sodipodi:docname="KeepCalmAndDrinkCoffee.svg">
  <defs
     id="defs80" />
  <sodipodi:namedview
     id="base"
     pagecolor="#ffffff"
     bordercolor="#666666"
     borderopacity="1.0"
     inkscape:pageopacity="0.0"
     inkscape:pageshadow="2"
     inkscape:zoom="0.35"
     inkscape:cx="-451.42857"
     inkscape:cy="560"
     inkscape:document-units="mm"
     inkscape:current-layer="layer1"
     showgrid="false"
     inkscape:window-width="1920"
     inkscape:window-height="1017"
     inkscape:window-x="-8"
     inkscape:window-y="-8"
     inkscape:window-maximized="1" />
  <metadata
     id="metadata83">
    <rdf:RDF>
      <cc:Work
         rdf:about="">
        <dc:format>image/svg+xml</dc:format>
        <dc:type
           rdf:resource="http://purl.org/dc/dcmitype/StillImage" />
        <dc:title />
      </cc:Work>
    </rdf:RDF>
  </metadata>
  <g
     inkscape:label="Ebene 1"
     inkscape:groupmode="layer"
     id="layer1">
    <text
       xml:space="preserve"
       style="font-style:normal;font-weight:normal;font-size:16.27436256px;line-height:1.25;font-family:sans-serif;letter-spacing:0px;word-spacing:0px;fill:#000000;fill-opacity:1;stroke:none;stroke-width:0.40685907"
       x="76.766212"
       y="214.77551"
       id="text28"><tspan
         sodipodi:role="line"
         id="tspan26"
         x="76.766212"
         y="214.77551"
         style="stroke-width:0.40685907">- and -</tspan></text>
    <path
       id="path40"
       d="m 79.480291,41.313258 c 0.257386,1.524449 1.583851,2.672737 3.167704,2.672737 h 3.26667 c 1.94021,0 3.48446,-1.682836 3.22708,-3.563655 -0.75232,-5.583055 -3.24688,-10.730546 -7.246088,-14.789152 -2.850915,-2.910303 -4.672331,-6.592748 -5.226685,-10.591951 -0.217774,-1.564046 -1.564045,-2.73214 -3.187479,-2.73214 h -3.246881 c -1.940222,0 -3.444865,1.682836 -3.227091,3.563655 0.772127,6.315586 3.563655,12.136206 8.038018,16.709553 2.37577,2.415367 3.900219,5.444474 4.434752,8.730953 z m 22.173829,0 c 0.25737,1.524449 1.58383,2.672737 3.16768,2.672737 h 3.26669 c 1.94019,0 3.48446,-1.682836 3.22708,-3.563655 -0.75234,-5.583055 -3.24687,-10.730546 -7.24609,-14.789152 -2.85093,-2.910303 -4.672327,-6.592748 -5.226677,-10.591951 -0.21779,-1.564046 -1.56407,-2.73214 -3.1875,-2.73214 h -3.246878 c -1.9402,0 -3.46465,1.682836 -3.22707,3.563655 0.77211,6.315586 3.56363,12.136206 8.037998,16.709553 2.37577,2.415367 3.900217,5.444474 4.434767,8.730953 z m 31.85509,9.008114 H 60.652354 c -3.504268,0 -6.335377,2.831127 -6.335377,6.335377 v 38.01226 c 0,10.492961 8.513148,19.006121 19.00613,19.006121 h 38.012253 c 10.493,0 19.00616,-8.51316 19.00616,-19.006121 h 3.16769 c 12.23519,0 22.17381,-9.93863 22.17381,-22.17382 0,-12.2352 -9.93862,-22.173817 -22.17381,-22.173817 z m 0,31.676887 h -3.16769 v -19.00613 h 3.16769 c 5.24647,0 9.50303,4.25659 9.50303,9.50306 0,5.24648 -4.25656,9.50307 -9.50303,9.50307 z"
       inkscape:connector-curvature="0"
       style="fill:currentColor;stroke-width:0.19798054" />
    <text
       xml:space="preserve"
       style="font-style:normal;font-variant:normal;font-weight:bold;font-stretch:normal;font-size:26.03898048px;line-height:1.25;font-family:'Comic Sans MS';-inkscape-font-specification:'Comic Sans MS Bold';text-align:center;letter-spacing:0px;word-spacing:0px;text-anchor:middle;fill:#000000;fill-opacity:1;stroke:none;stroke-width:0.40685907"
       x="104.89194"
       y="153.14828"
       id="text53"><tspan
         sodipodi:role="line"
         id="tspan51"
         x="104.89194"
         y="153.14828"
         style="font-style:normal;font-variant:normal;font-weight:bold;font-stretch:normal;font-size:26.03898048px;font-family:sans-serif;-inkscape-font-specification:'sans-serif Bold';text-align:center;text-anchor:middle;stroke-width:0.40685907">KEEP</tspan><tspan
         sodipodi:role="line"
         x="104.89194"
         y="185.69701"
         style="font-style:normal;font-variant:normal;font-weight:bold;font-stretch:normal;font-size:26.03898048px;font-family:sans-serif;-inkscape-font-specification:'sans-serif Bold';text-align:center;text-anchor:middle;stroke-width:0.40685907"
         id="tspan55">CALM</tspan><tspan
         sodipodi:role="line"
         x="104.89194"
         y="218.24574"
         style="font-style:normal;font-variant:normal;font-weight:bold;font-stretch:normal;font-size:26.03898048px;font-family:sans-serif;-inkscape-font-specification:'sans-serif Bold';text-align:center;text-anchor:middle;stroke-width:0.40685907"
         id="tspan57" /><tspan
         sodipodi:role="line"
         x="104.89194"
         y="250.79446"
         style="font-style:normal;font-variant:normal;font-weight:bold;font-stretch:normal;font-size:26.03898048px;font-family:sans-serif;-inkscape-font-specification:'sans-serif Bold';text-align:center;text-anchor:middle;stroke-width:0.40685907"
         id="tspan59">DRINK</tspan><tspan
         sodipodi:role="line"
         x="104.89194"
         y="283.3432"
         style="font-style:normal;font-variant:normal;font-weight:bold;font-stretch:normal;font-size:26.03898048px;font-family:sans-serif;-inkscape-font-specification:'sans-serif Bold';text-align:center;text-anchor:middle;stroke-width:0.40685907"
         id="tspan61">COFFEE</tspan></text>
  </g>
</svg>
