<?xml version="1.0" standalone="no"?>
<!DOCTYPE svg PUBLIC "-//W3C//DTD SVG 20010904//EN"
 "http://www.w3.org/TR/2001/REC-SVG-20010904/DTD/svg10.dtd">
<svg version="1.0" xmlns="http://www.w3.org/2000/svg"
 width="700.000000pt" height="700.000000pt" viewBox="0 0 700.000000 700.000000"
 preserveAspectRatio="xMidYMid meet">
<metadata>
Created by potrace 1.14, written by Peter Selinger 2001-2017
</metadata>
<g transform="translate(0.000000,700.000000) scale(0.100000,-0.100000)"
fill="#000000" stroke="none">
<path d="M1653 6975 c-27 -14 -58 -37 -69 -52 -189 -257 -277 -455 -269 -601
10 -167 66 -286 256 -542 108 -145 166 -239 174 -286 8 -37 -48 -152 -138
-287 -45 -66 -68 -110 -72 -140 -11 -70 6 -125 54 -180 78 -88 209 -98 299
-22 50 43 170 227 228 350 122 258 87 445 -143 758 -118 160 -146 199 -176
250 -53 87 -55 113 -12 199 20 40 67 120 105 178 80 123 92 168 65 249 -29 88
-102 142 -197 147 -44 2 -67 -3 -105 -21z"/>
<path d="M2986 6986 c-55 -21 -90 -57 -168 -176 -81 -122 -160 -282 -178 -358
-29 -124 -9 -254 57 -387 24 -48 122 -203 144 -228 84 -96 205 -287 214 -339
9 -48 -25 -121 -124 -271 -39 -59 -75 -125 -80 -147 -28 -125 54 -244 183
-264 48 -8 130 15 168 47 64 53 224 323 274 462 25 69 25 230 0 305 -38 115
-121 256 -238 408 -78 100 -155 224 -167 267 -10 37 -8 46 23 110 18 39 66
119 105 179 75 115 87 150 77 219 -20 133 -164 219 -290 173z"/>
<path d="M4305 6989 c-57 -22 -98 -62 -170 -173 -80 -122 -143 -241 -171 -326
-29 -86 -25 -243 9 -339 29 -83 90 -188 177 -306 118 -160 197 -282 213 -328
l15 -46 -37 -78 c-21 -43 -64 -116 -96 -163 -70 -102 -86 -138 -86 -193 0 -59
6 -79 37 -127 63 -95 193 -124 290 -64 60 37 158 176 239 339 70 140 89 214
82 320 -11 167 -72 288 -295 585 -78 104 -134 206 -134 243 0 32 61 152 131
256 31 47 63 100 70 118 37 92 -1 203 -90 259 -45 28 -138 40 -184 23z"/>
<path d="M179 4369 c-77 -13 -150 -78 -170 -153 -13 -47 -8 -87 37 -291 20
-88 37 -167 39 -175 2 -8 47 -211 100 -450 53 -239 98 -442 100 -450 2 -8 29
-130 60 -270 31 -140 58 -262 60 -270 2 -8 47 -211 100 -450 53 -239 98 -442
100 -450 2 -8 8 -35 14 -60 5 -25 12 -56 15 -70 2 -14 23 -108 46 -210 23
-102 43 -192 45 -200 69 -324 287 -605 584 -755 95 -47 230 -91 321 -103 71
-9 2801 -9 2860 0 241 39 451 146 618 317 175 179 253 347 328 699 l17 83 56
-6 c80 -10 276 -11 346 -3 86 11 109 15 210 45 93 27 98 29 153 56 19 9 38 17
42 17 5 0 51 25 101 55 329 197 544 502 620 877 19 90 21 126 16 293 -7 247
-30 345 -132 550 -154 309 -437 553 -760 656 -38 12 -73 23 -76 25 -3 2 4 50
17 106 32 139 33 144 40 176 3 15 13 63 23 107 26 121 13 181 -53 247 -66 67
193 61 -2972 62 -1579 1 -2886 -2 -2905 -5z m5907 -1185 c246 -131 413 -360
463 -634 10 -56 7 -275 -4 -320 -76 -289 -235 -492 -481 -611 -126 -61 -217
-81 -371 -83 -72 0 -134 2 -138 5 -3 4 -1 28 5 55 7 27 13 57 15 67 2 10 6 26
9 35 3 9 7 28 10 42 2 14 12 59 21 100 9 41 18 82 20 90 4 19 56 250 60 270 2
8 11 49 20 90 9 41 18 82 20 90 2 8 45 200 95 425 50 226 93 418 96 427 5 16
9 16 59 -3 30 -11 75 -31 101 -45z"/>
</g>
</svg>
